<?xml version="1.0" encoding="utf-8" ?><svg xmlns="http://www.w3.org/2000/svg" xmlns:xlink="http://www.w3.org/1999/xlink" width="1080" height="603" viewBox="0 0 1080 603"><clipPath id="cl_3"><rect y="3.4332275e-05" width="1080" height="603.27838"/></clipPath><g clip-path="url(#cl_3)"><path fill="#195B2C" transform="matrix(1 0 0 0.987362 0 -25.6714)" d="M533.424 125.325C543.577 120.542 592.511 109.262 600.697 115.247C600.856 115.815 601.195 116.709 600.489 117.334C586.055 130.095 564.497 144.056 550.333 156.43C560.013 159.5 568.69 163.058 578.148 166.605C589.581 170.893 600.936 174.539 611.278 181.346C629.744 179.464 674.168 188.231 690.69 197.265L691.115 196.599C696.287 188.386 704.304 163.914 709.55 158.809C716.261 158.16 730.536 193.649 732.798 200.516C734.833 206.698 736.486 214.275 738.556 220.516C744.296 224.463 750.852 227.913 756.867 231.678C769.394 239.519 789.884 256.418 797.652 268.726C800.434 271.033 804.988 277.504 806.653 280.827C803.246 280.769 789.101 280.046 786.592 278.636C775.982 278.087 766.265 277.985 755.632 277.926C756.374 283.363 756.974 289.193 757.924 294.542C760.682 310.073 759.324 325.862 760.245 341.531C760.512 346.084 763.842 352.614 764.276 357.395C766.37 373.528 768.583 393.099 768.286 409.27C782.597 405.574 796.502 402.469 810.018 396.278C813.485 394.69 818.908 391.517 822.525 391.716C823.682 392.474 824.277 392.918 824.608 394.33C825.877 399.751 808.81 428.061 804.888 433.362C796.328 444.928 785.713 456.209 773.979 464.515C775.9 478.746 777.506 504.917 776.434 519.465C763.888 516.31 740.974 505.491 729.129 499.302C714.031 508.241 696.303 513.134 679.703 518.531C675.423 519.923 663.513 521.573 661.143 523.138C660.661 527.171 662.735 532.249 662.808 536.018C663.023 547.093 662.636 558.181 663.054 569.268C667.28 568.53 674 568.018 678.732 567.312L726.008 560.039C728.847 559.771 732.517 559.217 735.241 559.659C738.156 562.453 733.533 567.079 731.256 569.114C708.581 589.376 679.429 607.318 650.294 616.403C633.171 621.743 602.295 633.582 585.199 631.452C582.578 631.695 582.856 631.262 581.104 632.615C575.087 635.836 539.668 637.223 538.145 632.218C539.104 628.68 567.896 609.294 574.193 602.443L542.525 573.376C534.693 576.174 495.946 573.021 490.238 578.356C486.543 581.81 492.908 628.825 489.832 631.965C485.549 633.315 474.831 628.971 471.541 626.052C459.911 615.732 449.145 602.14 439.431 589.984C435.012 584.455 431 577.678 426.262 572.988C420.073 572.292 414.176 571.961 407.971 570.958C402.56 571.219 390.895 568.699 385.402 567.549C372.257 565.286 350.997 560.024 339.017 553.815C336.179 552.45 335.296 551.511 335.11 548.342C335.502 547.349 335.936 546.081 337.106 545.781C353.873 541.482 370.505 537.116 386.524 530.459C390.295 528.892 393.737 527.72 397.316 525.641C393.65 515.828 375.508 475.191 368.862 469.315C363.723 464.771 356.094 461.648 350.051 458.37C342.588 454.321 335.248 450.075 327.911 445.805C321.94 453.887 316.251 461.51 310.586 469.845C307.141 474.915 301.208 485.722 297.537 489.779C296.957 491.323 295.097 494.265 293.588 495.3C287.768 496.163 282.389 486.119 280.634 481.531C275.159 472.15 281.952 426.344 286.021 415.504C276.823 407.798 258.966 400.202 254.52 388.677C254.179 387.793 254.271 385.528 254.936 384.971C265.123 376.443 289.481 371.177 300.958 368.669C304.217 361.93 306.553 353.373 309.889 346.426C315 335.783 321.46 325.472 327.824 315.541C320.61 306.966 312.39 299.162 306.535 289.366C296.136 295.686 284.753 309.365 275.551 317.751C271.966 321.018 270.308 327.373 265.116 326.382C258.349 321.334 269.766 285.951 272.625 278.615C286.383 243.303 308.349 209.655 336.302 184.002C342.368 178.435 357.361 165.23 366.161 168.788C367.193 171.345 363.694 177.089 362.347 180.308C357.111 192.825 354.814 204.659 352.226 217.883C364.029 218.286 375.407 218.877 387.13 217.311C390.648 213.183 394.549 207.468 398.238 203.648C407.882 193.662 423.433 179.081 434.805 171.475C433.607 169.701 433.167 168.729 432.237 166.777C429.242 161.951 419.679 136.989 420.953 134.253C425.858 123.716 485.367 139.058 491.909 140.728C500.029 138.546 512.445 133.089 521.913 130.257C524.86 128.54 530.157 126.224 533.424 125.325ZM491.907 251.046C483.281 250.088 466.997 225.1 462.23 217.409C459.551 213.776 455.474 207.826 452.66 204.619C432.644 210.498 412.457 214.406 393.007 222.911C388.046 225.08 382.223 230.071 377.957 231.837C368.626 239.549 359.055 247.059 349.761 254.733C344.722 258.893 342.042 261.496 341.741 268.272C338.99 293.444 339.091 318.78 342.072 343.925C342.504 347.525 342.394 356.168 344.226 358.815C347.223 360.819 350.332 358.98 353.655 358.695C360.756 358.087 367.81 357.172 374.878 356.276C384.947 355.709 397.572 355.809 407.707 356.331C409.139 356.405 409.766 357.351 410.427 358.247C410.475 360.029 410.149 360.455 409.43 362.059C397.601 372.606 385.661 382.613 374.156 393.559C368.045 399.375 362.231 407.136 356.497 412.517C363.542 429.475 369.404 446.995 377.491 463.436C378.499 465.487 384.451 470.226 386.447 471.673C403.192 483.821 420.502 495.825 437.713 507.294C452.077 497.004 466.832 487.222 481.206 476.933C486.449 473.18 492.197 468.862 498.114 466.397L499.422 465.674C500.406 466.651 499.962 466.181 499.983 468.325C499.179 486.986 496.642 509.167 492.154 527.44C491.609 531.413 491.47 533.746 491.37 537.768C497.053 541.551 508.261 546.697 515.113 550.405C524.79 555.642 536.451 562.897 546.398 567.113C552.077 568.614 559.94 567.468 565.416 568.017C580.461 569.527 595.021 569.524 610.108 569.275C624.718 552.594 640.002 538.01 653.72 519.592C666.044 503.046 674.336 487.99 685.269 470.939C674.62 461.496 634.348 433.678 633.417 420.655C640.327 419.096 653.397 420.571 661.097 420.663L715.673 420.905C728.86 399.292 744.669 368.328 754.088 344.614C748.228 336.447 708.38 283.005 707.832 277.96C704.29 276.156 663.647 283.577 656.911 284.446C649.598 285.39 638.43 289.233 630.803 288.359C629.144 287.325 629.72 288.038 629.128 286.062C630.802 280.973 645.685 266.585 649.598 261.184C655.727 252.725 664.005 244.471 669.691 235.574C662.727 228.074 618.154 189.629 610.306 185.958C597.26 185.968 583.261 186.924 570.157 187.65C556.386 188.414 534.985 186.599 522.344 188.59C513.651 204.747 505.917 222.803 500.121 240.242C498.974 243.693 498.724 247.039 496.904 250.254C495.444 251.237 493.754 251.008 491.907 251.046Z"/><path fill="#195B2C" transform="matrix(1 0 0 0.987362 0 -25.6714)" d="M480.514 273.542C496.234 262.05 523.828 256.828 542.989 259.311C631.449 270.772 662.505 385.18 590.43 438.816C580.555 446.157 564.07 453.371 552.196 455.773C541.644 456.704 540.51 458.665 529.311 458.192C528.762 446.15 528.808 434.59 529.058 422.575C529.444 404.037 528.08 391.164 533.835 373.099C535.487 366.016 536.988 359.999 540.455 353.603C552.535 353.432 567.598 352.594 579.917 352.086C583.061 345.441 582.661 336.19 583.285 328.755C581.083 322.975 580.336 321.729 576.393 317.095C575.465 315.745 574.3 314.405 573.253 313.132C568.189 314.013 563.867 313.723 558.749 313.982C557.27 314.4 556.709 314.771 555.305 314.264C553.765 312.68 553.552 310.009 552.303 307.36L552.074 306.885C550.732 300.094 555.745 297.638 549.548 294.218L547.653 293.148C538.674 290.445 516.007 295.4 505.806 295.769C504.176 302.185 503.9 309.506 502.659 316.143C501.103 324.461 500.262 332.252 489.275 330.151C488.576 330.015 487.852 329.604 487.22 329.29C485.795 329.636 483.064 330.208 481.78 330.648C476.261 332.716 471.014 334.184 465.299 335.457C462.547 336.07 459.37 337.592 458.451 340.435C456.454 346.609 455.52 353.748 454.395 360.139C460.72 358.805 489.762 354.025 494.791 355.093C496.048 357.156 495.674 387.847 495.459 392.569C496.709 402.518 499.544 410.816 501.448 420.279C503.587 430.905 506.276 443.09 507.738 453.683L505.517 453.728C500.697 453.853 495.957 452.409 491.527 450.602C442.124 430.447 417.296 370.362 437.809 321.313C445.62 302.636 461.522 281.685 480.514 273.542Z"/><path fill="#E5E7E4" transform="matrix(1 0 0 0.987362 0 -25.6714)" d="M480.514 273.542L481.187 274.998C472.985 280.489 467.092 284.709 460.227 291.955C414.382 340.345 430.239 420.285 491.084 447.549C495.612 449.577 500.119 451.247 504.954 452.386C502.335 437.022 495.685 412.27 494.53 398.516C494.644 396.497 494.55 394.32 495.459 392.569C496.709 402.518 499.544 410.816 501.448 420.279C503.587 430.905 506.276 443.09 507.738 453.683L505.517 453.728C500.697 453.853 495.957 452.409 491.527 450.602C442.124 430.447 417.296 370.362 437.809 321.313C445.62 302.636 461.522 281.685 480.514 273.542Z"/><path fill="#E5E7E4" transform="matrix(1 0 0 0.987362 0 -25.6714)" d="M480.514 273.542C496.234 262.05 523.828 256.828 542.989 259.311C631.449 270.772 662.505 385.18 590.43 438.816C580.555 446.157 564.07 453.371 552.196 455.773L547.226 454.826C556.788 452.782 564.255 450.976 573.187 446.662C596.776 435.267 614.794 414.889 623.274 390.166C631.649 365.407 629.765 338.514 618.187 315.138C596.099 270.544 542.809 250.18 496.476 267.877C491.244 269.876 486.217 272.503 481.187 274.998L480.514 273.542Z"/><path fill="#D4E53D" transform="matrix(1 0 0 0.987362 0 -25.6714)" d="M586.427 324.397C589.343 323.778 592.23 323.153 595.164 322.617C591.841 332.286 587.851 345.115 584.064 354.357C571.073 355.239 554.931 356.323 542.04 357.723C539.564 365.145 537.453 371.95 535.55 379.564C532.847 392.948 532.822 403.597 532.276 417.166L530.742 456.122C537.007 456.005 541.044 455.544 547.226 454.826L552.196 455.773C541.644 456.704 540.51 458.665 529.311 458.192C528.762 446.15 528.808 434.59 529.058 422.575C529.444 404.037 528.08 391.164 533.835 373.099C535.487 366.016 536.988 359.999 540.455 353.603C552.535 353.432 567.598 352.594 579.917 352.086C583.061 345.441 582.661 336.19 583.285 328.755C584.031 326.031 583.739 325.331 586.427 324.397Z"/><path fill="#E5E7E4" transform="matrix(1 0 0 0.987362 0 -25.6714)" d="M457.003 334.333C463.394 333.522 475.842 330.473 481.78 330.648C476.261 332.716 471.014 334.184 465.299 335.457C462.547 336.07 459.37 337.592 458.451 340.435C456.454 346.609 455.52 353.748 454.395 360.139C460.72 358.805 489.762 354.025 494.791 355.093C496.048 357.156 495.674 387.847 495.459 392.569C494.55 394.32 494.644 396.497 494.53 398.516C492.966 391.391 493.446 366.228 493.381 356.97C479.596 359.105 463.849 363.042 450.333 363.866C452.36 354.042 454.745 344.12 457.003 334.333Z"/><path fill="#E5E7E4" transform="matrix(1 0 0 0.987362 0 -25.6714)" d="M550.004 288.512L547.653 293.148C538.674 290.445 516.007 295.4 505.806 295.769C504.176 302.185 503.9 309.506 502.659 316.143C501.103 324.461 500.262 332.252 489.275 330.151C488.576 330.015 487.852 329.604 487.22 329.29C490.463 328.3 494.397 327.737 497.791 327.151C500.088 316.258 501.925 304.162 503.447 293.178C514.007 291.508 539.517 289.027 550.004 288.512Z"/><path fill="#D4E53D" transform="matrix(1 0 0 0.987362 0 -25.6714)" d="M559.494 300.749L560.878 300.516C562.231 302.582 558.652 308.855 558.444 312.219C559.248 313.043 558.824 312.766 559.643 313.155L558.547 313.592L558.749 313.982C557.27 314.4 556.709 314.771 555.305 314.264C553.765 312.68 553.552 310.009 552.303 307.36L552.074 306.885C553.968 301.843 553.92 301.279 559.494 300.749Z"/><path fill="#85C04D" transform="matrix(1 0 0 0.987362 0 -25.6714)" d="M576.393 317.095L577.166 316.006C580.851 315.742 584.337 315.418 588.033 315.563C587.223 318.104 585.503 322.075 586.427 324.397C583.739 325.331 584.031 326.031 583.285 328.755C581.083 322.975 580.336 321.729 576.393 317.095Z"/><path fill="#E5E7E4" transform="matrix(1 0 0 0.987362 0 -25.6714)" d="M559.643 313.155C566.101 311.489 571.653 310.422 578.213 309.202L577.166 316.006L576.393 317.095C575.465 315.745 574.3 314.405 573.253 313.132C568.189 314.013 563.867 313.723 558.749 313.982L558.547 313.592L559.643 313.155Z"/><path fill="#85C04D" transform="matrix(1 0 0 0.987362 0 -25.6714)" d="M549.548 294.218C552.399 293.512 554.826 293.956 557.775 294.215C556.734 296.423 555.576 297.846 555.892 299.911C557.226 300.83 557.874 300.694 559.494 300.749C553.92 301.279 553.968 301.843 552.074 306.885C550.732 300.094 555.745 297.638 549.548 294.218Z"/><path fill="#195B2C" transform="matrix(1 0 0 0.987362 0 -25.6714)" d="M432.237 166.777C432.152 165.625 431.975 165.399 432.3 164.418L432.093 163.931L431.966 165.081L431.991 162.844C432.919 164.826 433.408 165.974 435.436 166.807C436.534 168.718 437.594 170.441 438.459 172.473C421.752 185.687 402.007 201.47 390.063 219.566C408.917 215.7 436.603 203.067 454.602 201.892C456.001 203.681 458.793 207.074 459.499 209.087C460.308 213.087 463.217 215.558 462.23 217.409C459.551 213.776 455.474 207.826 452.66 204.619C432.644 210.498 412.457 214.406 393.007 222.911C388.046 225.08 382.223 230.071 377.957 231.837C368.626 239.549 359.055 247.059 349.761 254.733C344.722 258.893 342.042 261.496 341.741 268.272C338.99 293.444 339.091 318.78 342.072 343.925C342.504 347.525 342.394 356.168 344.226 358.815C347.223 360.819 350.332 358.98 353.655 358.695C360.756 358.087 367.81 357.172 374.878 356.276C384.947 355.709 397.572 355.809 407.707 356.331C409.139 356.405 409.766 357.351 410.427 358.247C410.475 360.029 410.149 360.455 409.43 362.059C397.601 372.606 385.661 382.613 374.156 393.559C368.045 399.375 362.231 407.136 356.497 412.517C363.542 429.475 369.404 446.995 377.491 463.436C378.499 465.487 384.451 470.226 386.447 471.673C403.192 483.821 420.502 495.825 437.713 507.294C452.077 497.004 466.832 487.222 481.206 476.933C486.449 473.18 492.197 468.862 498.114 466.397L499.422 465.674C500.406 466.651 499.962 466.181 499.983 468.325C499.179 486.986 496.642 509.167 492.154 527.44L489.803 530.121L488.582 539.244C498.652 545.788 512.717 551.758 523.241 558.271C525.813 559.863 531.368 562.599 533.565 564.203C535.464 566.913 537.093 567.033 539.819 568.712L539.716 569.343C536.095 570.915 532.874 570.457 530.191 571.579L534.295 571.641C537.431 572.534 539.551 572.667 542.76 573.096L542.525 573.376C534.693 576.174 495.946 573.021 490.238 578.356C486.543 581.81 492.908 628.825 489.832 631.965C485.549 633.315 474.831 628.971 471.541 626.052C459.911 615.732 449.145 602.14 439.431 589.984C435.012 584.455 431 577.678 426.262 572.988C420.073 572.292 414.176 571.961 407.971 570.958C402.56 571.219 390.895 568.699 385.402 567.549C372.257 565.286 350.997 560.024 339.017 553.815C336.179 552.45 335.296 551.511 335.11 548.342C335.502 547.349 335.936 546.081 337.106 545.781C353.873 541.482 370.505 537.116 386.524 530.459C390.295 528.892 393.737 527.72 397.316 525.641C393.65 515.828 375.508 475.191 368.862 469.315C363.723 464.771 356.094 461.648 350.051 458.37C342.588 454.321 335.248 450.075 327.911 445.805C321.94 453.887 316.251 461.51 310.586 469.845C307.141 474.915 301.208 485.722 297.537 489.779C296.957 491.323 295.097 494.265 293.588 495.3C287.768 496.163 282.389 486.119 280.634 481.531C275.159 472.15 281.952 426.344 286.021 415.504C276.823 407.798 258.966 400.202 254.52 388.677C254.179 387.793 254.271 385.528 254.936 384.971C265.123 376.443 289.481 371.177 300.958 368.669C304.217 361.93 306.553 353.373 309.889 346.426C315 335.783 321.46 325.472 327.824 315.541C320.61 306.966 312.39 299.162 306.535 289.366C296.136 295.686 284.753 309.365 275.551 317.751C271.966 321.018 270.308 327.373 265.116 326.382C258.349 321.334 269.766 285.951 272.625 278.615C286.383 243.303 308.349 209.655 336.302 184.002C342.368 178.435 357.361 165.23 366.161 168.788C367.193 171.345 363.694 177.089 362.347 180.308C357.111 192.825 354.814 204.659 352.226 217.883C364.029 218.286 375.407 218.877 387.13 217.311C390.648 213.183 394.549 207.468 398.238 203.648C407.882 193.662 423.433 179.081 434.805 171.475C433.607 169.701 433.167 168.729 432.237 166.777Z"/><path fill="#ECEBEC" transform="matrix(1 0 0 0.987362 0 -25.6714)" d="M432.237 166.777C432.152 165.625 431.975 165.399 432.3 164.418L432.093 163.931L431.966 165.081L431.991 162.844C432.919 164.826 433.408 165.974 435.436 166.807C436.534 168.718 437.594 170.441 438.459 172.473C421.752 185.687 402.007 201.47 390.063 219.566C408.917 215.7 436.603 203.067 454.602 201.892C456.001 203.681 458.793 207.074 459.499 209.087C460.308 213.087 463.217 215.558 462.23 217.409C459.551 213.776 455.474 207.826 452.66 204.619C432.644 210.498 412.457 214.406 393.007 222.911C388.046 225.08 382.223 230.071 377.957 231.837C379.632 229.334 389.639 222.947 392.579 221.855C395.848 220.641 398.889 219.937 402.295 217.936C400.085 217.952 391.264 220.819 389.092 221.832C385.163 223.663 377.272 231.856 372.993 231.792C378.246 227.476 384.852 223.988 389.596 219.913C376.872 220.484 361.106 220.482 348.334 220.18C349.773 209.004 352.212 199.401 355.937 188.734C358.126 182.465 361.087 175.959 363.127 169.735C317.709 191.139 267.902 272.832 266.439 322.866C277.263 311.048 293.718 293.658 307.029 285.238C316.821 296.941 322.621 303.911 333.415 315.03C324.627 327.347 318.153 337.047 312.083 351.163C309.366 357.481 306.579 366.751 303.733 372.312C289.147 374.41 269.389 379.817 256.984 387.659C267.36 401.367 277.818 403.95 289.748 413.416C286.621 434.243 283.016 444.415 282.135 466.911C280.108 470.041 282.215 481.425 284.214 484.823L283.983 485.659C282.903 484.11 282.098 482.528 280.634 481.531C275.159 472.15 281.952 426.344 286.021 415.504C276.823 407.798 258.966 400.202 254.52 388.677C254.179 387.793 254.271 385.528 254.936 384.971C265.123 376.443 289.481 371.177 300.958 368.669C304.217 361.93 306.553 353.373 309.889 346.426C315 335.783 321.46 325.472 327.824 315.541C320.61 306.966 312.39 299.162 306.535 289.366C296.136 295.686 284.753 309.365 275.551 317.751C271.966 321.018 270.308 327.373 265.116 326.382C258.349 321.334 269.766 285.951 272.625 278.615C286.383 243.303 308.349 209.655 336.302 184.002C342.368 178.435 357.361 165.23 366.161 168.788C367.193 171.345 363.694 177.089 362.347 180.308C357.111 192.825 354.814 204.659 352.226 217.883C364.029 218.286 375.407 218.877 387.13 217.311C390.648 213.183 394.549 207.468 398.238 203.648C407.882 193.662 423.433 179.081 434.805 171.475C433.607 169.701 433.167 168.729 432.237 166.777Z"/><path fill="#ECEBEC" transform="matrix(1 0 0 0.987362 0 -25.6714)" d="M408.07 359.277C408.485 361.337 408.057 360.441 409.43 362.059C397.601 372.606 385.661 382.613 374.156 393.559C368.045 399.375 362.231 407.136 356.497 412.517C363.542 429.475 369.404 446.995 377.491 463.436C378.499 465.487 384.451 470.226 386.447 471.673C403.192 483.821 420.502 495.825 437.713 507.294C452.077 497.004 466.832 487.222 481.206 476.933C486.449 473.18 492.197 468.862 498.114 466.397C496.997 470.332 492.847 472.666 489.612 475.008C472.686 487.263 455.847 499.526 438.474 511.141C417.774 499.952 393.396 480.396 374.552 465.388C372.67 463.889 355.239 418.118 354.681 411.692C354.547 410.145 362.65 401.813 363.68 399.972C369.685 389.243 404.982 365.711 408.07 359.277Z"/><path fill="#ECEBEC" transform="matrix(1 0 0 0.987362 0 -25.6714)" d="M327.188 441.803C337.233 446.882 347.107 453.038 357 458.487C362.583 461.562 368.781 464.32 374.056 467.664C381.192 482.03 397.67 513.249 401.862 526.843C388.721 534.984 371.114 540.553 356.165 544.632C350.645 546.139 343.773 547.472 338.508 549.256C337.422 550.487 337.654 549.782 337.473 551.269L339.844 553.131L339.017 553.815C336.179 552.45 335.296 551.511 335.11 548.342C335.502 547.349 335.936 546.081 337.106 545.781C353.873 541.482 370.505 537.116 386.524 530.459C390.295 528.892 393.737 527.72 397.316 525.641C393.65 515.828 375.508 475.191 368.862 469.315C363.723 464.771 356.094 461.648 350.051 458.37C342.588 454.321 335.248 450.075 327.911 445.805C321.94 453.887 316.251 461.51 310.586 469.845C307.141 474.915 301.208 485.722 297.537 489.779C295.655 485.087 307.864 473.731 308.774 467.226C310.467 463.773 324.177 444.954 327.188 441.803Z"/><path fill="#E5E7E4" transform="matrix(1 0 0 0.987362 0 -25.6714)" d="M372.993 231.792C377.272 231.856 385.163 223.663 389.092 221.832C391.264 220.819 400.085 217.952 402.295 217.936C398.889 219.937 395.848 220.641 392.579 221.855C389.639 222.947 379.632 229.334 377.957 231.837C368.626 239.549 359.055 247.059 349.761 254.733C344.722 258.893 342.042 261.496 341.741 268.272C338.99 293.444 339.091 318.78 342.072 343.925C342.504 347.525 342.394 356.168 344.226 358.815C347.223 360.819 350.332 358.98 353.655 358.695C360.756 358.087 367.81 357.172 374.878 356.276C384.947 355.709 397.572 355.809 407.707 356.331C409.139 356.405 409.766 357.351 410.427 358.247C410.475 360.029 410.149 360.455 409.43 362.059C408.057 360.441 408.485 361.337 408.07 359.277C396.963 355.283 355.347 362.993 342.348 363.862C339.203 350.418 338.034 329.774 335.435 315.266C334.133 307.996 336.055 264.406 340.279 258.587C343.733 253.83 367.023 235.454 372.993 231.792Z"/><path fill="#E5E7E4" transform="matrix(1 0 0 0.987362 0 -25.6714)" d="M415.917 569.389L430.39 570.015C439.212 584.718 468.096 624.569 484.223 628.765C485.879 629.196 487.608 629.415 489.301 629.641C487.048 611.395 485.698 592.687 486.026 574.291C493.033 573.424 499.978 573.224 506.819 572.834C510.496 572.624 527.481 572.629 530.191 571.579L534.295 571.641C537.431 572.534 539.551 572.667 542.76 573.096L542.525 573.376C534.693 576.174 495.946 573.021 490.238 578.356C486.543 581.81 492.908 628.825 489.832 631.965C485.549 633.315 474.831 628.971 471.541 626.052C459.911 615.732 449.145 602.14 439.431 589.984C435.012 584.455 431 577.678 426.262 572.988C420.073 572.292 414.176 571.961 407.971 570.958L407.842 570.635C408.514 569.699 412.457 570.744 415.917 569.389Z"/><path fill="#E5E7E4" transform="matrix(1 0 0 0.987362 0 -25.6714)" d="M339.017 553.815L339.844 553.131L337.473 551.269C337.654 549.782 337.422 550.487 338.508 549.256C341.382 555.152 382.767 564.376 390.383 566.244C388.601 566.081 388.05 565.971 386.234 566.247L385.402 567.549C372.257 565.286 350.997 560.024 339.017 553.815Z"/><path fill="#E5E7E4" transform="matrix(1 0 0 0.987362 0 -25.6714)" d="M499.983 468.325C499.179 486.986 496.642 509.167 492.154 527.44L489.803 530.121C490.762 522.212 497.956 471.754 499.983 468.325Z"/><path fill="#E5E7E4" transform="matrix(1 0 0 0.987362 0 -25.6714)" d="M280.634 481.531C282.098 482.528 282.903 484.11 283.983 485.659L284.214 484.823C282.215 481.425 280.108 470.041 282.135 466.911C282.368 476.457 283.075 483.034 290.229 490.712C290.934 491.468 291.598 491.802 292.603 492.029C294.794 490.389 304.739 471.408 308.774 467.226C307.864 473.731 295.655 485.087 297.537 489.779C296.957 491.323 295.097 494.265 293.588 495.3C287.768 496.163 282.389 486.119 280.634 481.531Z"/><path fill="#E5E7E4" transform="matrix(1 0 0 0.987362 0 -25.6714)" d="M385.402 567.549L386.234 566.247C388.05 565.971 388.601 566.081 390.383 566.244C398.773 567.903 409.168 567.973 415.917 569.389C412.457 570.744 408.514 569.699 407.842 570.635L407.971 570.958C402.56 571.219 390.895 568.699 385.402 567.549Z"/><path fill="#ECEBEC" transform="matrix(1 0 0 0.987362 0 -25.6714)" d="M754.459 275.933C762.204 275.977 779.377 276.542 786.592 278.636C775.982 278.087 766.265 277.985 755.632 277.926C756.374 283.363 756.974 289.193 757.924 294.542C760.682 310.073 759.324 325.862 760.245 341.531C760.512 346.084 763.842 352.614 764.276 357.395C766.37 373.528 768.583 393.099 768.286 409.27C782.597 405.574 796.502 402.469 810.018 396.278C813.485 394.69 818.908 391.517 822.525 391.716C823.682 392.474 824.277 392.918 824.608 394.33C825.877 399.751 808.81 428.061 804.888 433.362C796.328 444.928 785.713 456.209 773.979 464.515C775.9 478.746 777.506 504.917 776.434 519.465C763.888 516.31 740.974 505.491 729.129 499.302C714.031 508.241 696.303 513.134 679.703 518.531C675.423 519.923 663.513 521.573 661.143 523.138C660.661 527.171 662.735 532.249 662.808 536.018C663.023 547.093 662.636 558.181 663.054 569.268L666.243 569.743C664.296 570.503 662.512 570.53 660.252 571.387C660.308 561.93 660.802 552.662 660.427 543.19C660.121 535.429 658.908 527.79 658.791 520.109C687.995 514.764 702.148 510.057 729.203 496.998C745.123 504.67 758.097 511.023 774.975 516.459C775.036 510.818 775.121 505.115 774.976 499.478C774.664 487.371 772.661 475.339 771.692 463.253C796.815 441.926 811.056 424.17 823.098 393.363C820.702 394.164 818.276 395.114 815.926 396.054C799.926 402.457 783.911 408.1 767.151 412.125C766.157 396.49 765.699 382.236 763.107 366.594C762.363 362.108 757.788 344.393 757.944 341.528C759.176 318.914 756.538 298.223 754.459 275.933Z"/><path fill="#ECEBEC" transform="matrix(1 0 0 0.987362 0 -25.6714)" d="M685.269 470.939C674.62 461.496 634.348 433.678 633.417 420.655C634.945 423.656 638.383 426.976 640.726 429.55C655.117 445.362 671.592 457.647 688.654 470.395C678.292 488.405 666.05 508.961 653.313 525.322C640.504 541.776 625.422 557.651 611.004 572.701C597.333 573.133 583.447 572.697 569.802 571.877C567.503 571.739 564.973 571.443 562.699 571.49L561.983 571.547C558.288 571.812 550.986 571.374 548.458 572.041L548.166 572.766C550.504 575.54 551.253 575.609 552.208 579.032C550.856 577.942 546.082 572.704 544.479 571.067C540.451 571.076 538.271 571.141 534.295 571.641L530.191 571.579C532.874 570.457 536.095 570.915 539.716 569.343L539.819 568.712C537.093 567.033 535.464 566.913 533.565 564.203C531.368 562.599 525.813 559.863 523.241 558.271C512.717 551.758 498.652 545.788 488.582 539.244L489.803 530.121L492.154 527.44C491.609 531.413 491.47 533.746 491.37 537.768C497.053 541.551 508.261 546.697 515.113 550.405C524.79 555.642 536.451 562.897 546.398 567.113C552.077 568.614 559.94 567.468 565.416 568.017C580.461 569.527 595.021 569.524 610.108 569.275C624.718 552.594 640.002 538.01 653.72 519.592C666.044 503.046 674.336 487.99 685.269 470.939Z"/><path fill="#535252" transform="matrix(1 0 0 0.987362 0 -25.6714)" d="M533.565 564.203C539.148 567.017 543.374 570.034 549.793 570.668C553.772 571.061 558.869 570.939 562.699 571.49L561.983 571.547C558.288 571.812 550.986 571.374 548.458 572.041L548.166 572.766C550.504 575.54 551.253 575.609 552.208 579.032C550.856 577.942 546.082 572.704 544.479 571.067C540.451 571.076 538.271 571.141 534.295 571.641L530.191 571.579C532.874 570.457 536.095 570.915 539.716 569.343L539.819 568.712C537.093 567.033 535.464 566.913 533.565 564.203Z"/><path fill="#E5E7E4" transform="matrix(1 0 0 0.987362 0 -25.6714)" d="M533.424 125.325C543.577 120.542 592.511 109.262 600.697 115.247C600.856 115.815 601.195 116.709 600.489 117.334C586.055 130.095 564.497 144.056 550.333 156.43C560.013 159.5 568.69 163.058 578.148 166.605C589.581 170.893 600.936 174.539 611.278 181.346C629.744 179.464 674.168 188.231 690.69 197.265L691.115 196.599C696.287 188.386 704.304 163.914 709.55 158.809C716.261 158.16 730.536 193.649 732.798 200.516C734.833 206.698 736.486 214.275 738.556 220.516C744.296 224.463 750.852 227.913 756.867 231.678C769.394 239.519 789.884 256.418 797.652 268.726C794.254 266.263 789.628 261.287 786.625 258.185C775.933 247.14 763.91 238.11 750.624 230.418C745.829 227.642 740.622 225.131 736.106 221.876C734.519 217.072 732.886 208.877 731.253 203.371C725.966 185.546 719.838 174.928 709.968 159.751L709.535 160.58C703.239 172.407 700.751 188.017 691.815 198.513C685.197 196.963 678.826 194.202 672.325 192.279C656.998 187.743 641.522 184.446 625.541 183.374C621.203 183.083 612.755 183.282 608.793 181.895C602.629 179.736 596.502 175.063 590.201 172.906C582.6 169.858 574.981 166.939 567.296 164.127C560.525 161.65 553.351 159.386 546.856 156.344C562.182 144.854 577.131 132.843 592.545 121.462C595.372 119.375 597.911 117.254 601.066 115.657C583.284 114.488 568.437 116.409 551.434 121.416C547.901 122.456 535.986 126.275 533.424 125.325Z"/><path fill="#ECEBEC" transform="matrix(1 0 0 0.987362 0 -25.6714)" d="M707.832 277.96L709.248 277.916C723.491 299.308 739.087 319.487 753.62 340.655C754.386 341.771 755.913 344.322 755.661 345.683C754.28 351.558 750.865 358.362 748.298 363.944C739.358 383.379 729.223 405.016 717.689 422.985C692.297 422.785 658.188 423.256 633.417 420.655C640.327 419.096 653.397 420.571 661.097 420.663L715.673 420.905C728.86 399.292 744.669 368.328 754.088 344.614C748.228 336.447 708.38 283.005 707.832 277.96Z"/><path fill="#ECEBEC" transform="matrix(1 0 0 0.987362 0 -25.6714)" d="M726.008 560.039C728.847 559.771 732.517 559.217 735.241 559.659C738.156 562.453 733.533 567.079 731.256 569.114C708.581 589.376 679.429 607.318 650.294 616.403C633.171 621.743 602.295 633.582 585.199 631.452C603.509 628.069 620.215 624.727 637.833 618.647C668.738 607.981 698.309 593.577 723.441 572.398C726.242 570.038 732.136 565.595 733.482 562.173C730.436 560.936 728.999 562.521 726.008 560.039Z"/><path fill="#E5E7E4" transform="matrix(1 0 0 0.987362 0 -25.6714)" d="M534.295 571.641C538.271 571.141 540.451 571.076 544.479 571.067C546.082 572.704 550.856 577.942 552.208 579.032C558.97 587.281 571.626 594.624 578.925 602.019C571.655 611.216 562.097 617.111 552.613 623.733C550.248 625.385 542.325 629.326 541.78 631.533C547.911 636.589 578.183 631.072 581.104 632.615C575.087 635.836 539.668 637.223 538.145 632.218C539.104 628.68 567.896 609.294 574.193 602.443L542.525 573.376L542.76 573.096C539.551 572.667 537.431 572.534 534.295 571.641Z"/><path fill="#E5E7E4" transform="matrix(1 0 0 0.987362 0 -25.6714)" d="M521.913 130.257C516.814 133.924 501.188 139.555 494.988 142.042C490.742 143.746 475.67 138.244 470.401 137.269C454.743 134.372 439.186 132.106 423.165 132.574C424.58 142.842 427.572 149.053 431.745 158.489C432.326 159.803 435.22 165.982 435.436 166.807C433.408 165.974 432.919 164.826 431.991 162.844L431.966 165.081L432.093 163.931L432.3 164.418C431.975 165.399 432.152 165.625 432.237 166.777C429.242 161.951 419.679 136.989 420.953 134.253C425.858 123.716 485.367 139.058 491.909 140.728C500.029 138.546 512.445 133.089 521.913 130.257Z"/><path fill="#E5E7E4" transform="matrix(1 0 0 0.987362 0 -25.6714)" d="M663.054 569.268C667.28 568.53 674 568.018 678.732 567.312L726.008 560.039C728.999 562.521 730.436 560.936 733.482 562.173C717.193 563.095 700.751 566.915 684.614 569.219C677.602 570.22 667.191 571.87 660.252 571.387C662.512 570.53 664.296 570.503 666.243 569.743L663.054 569.268Z"/><path fill="#E5E7E4" transform="matrix(1 0 0 0.987362 0 -25.6714)" d="M459.499 209.087C466.194 218.34 471.956 227.978 479.206 236.95C482.636 241.194 489.9 246.65 491.907 251.046C483.281 250.088 466.997 225.1 462.23 217.409C463.217 215.558 460.308 213.087 459.499 209.087Z"/><path transform="matrix(1 0 0 0.987362 0 -25.6714)" d="M299.904 765.556C298.009 758.135 291.994 747.294 285.372 743.816C269.862 736.221 255.808 732.886 241.393 722.587C220.458 707.63 215.462 679.647 230.699 658.69C246.196 637.375 275.248 641.497 298.186 639.17C304.454 638.534 319.372 643.541 324.516 647.65C325.889 655.965 324.75 668.633 324.689 677.499C304.244 673.697 289.782 659.485 267.711 669.865C266.469 674.63 262.34 674.235 260.205 683.502C262.575 690.233 266.274 695.122 273.024 698.343C296.881 709.726 322.784 716.649 332.536 744.223C340.841 767.705 333.366 795.801 308.799 806.146C307.145 806.842 305.698 806.741 303.942 806.5C299.063 808.606 290.027 810.202 284.584 811.276C261.051 814.158 245.526 810.515 223.885 802.559C223.974 796.679 222.915 772.406 223.975 768.975C225.035 768.312 225.635 767.916 226.974 768.383C242.438 773.772 257.217 782.39 273.907 783.992L274.826 784.075C287.381 783.526 296.502 778.055 299.904 765.556Z"/></g></svg>